PathFileType	4	(X/Y/Z)	C:/Git/opensim_tutorial/tutorials/repeated_sprinting/Simulations/PC013/markers.trc	
DataRate	CameraRate	NumFrames	NumMarkers	Units	OrigDataRate	OrigDataStartFrame	OrigNumFrames	
100.00	100.00	7	49	mm	100.00	2939	302	
Frame#	Time	RASIS			LASIS			RPSIS			LPSIS			RTH1			RTH2			RTH3			RTH4			LTH1			LTH2			LTH3			LTH4			RLK			LLK			RSK1			RSK2			RSK3			RSK4			LSK1			LSK2			LSK3			LSK4			RLA			RMA			RHEE			RPCA			RLCA			RSTL			RP1MT			RD1MT			RP5MT			RD5MT			RTOE			RHLX			LLA			LMA			LHEE			LPCA			LLCA			LSTL			LP1MT			LP5MT			LD5MT			LTOE			RAC			LAC			C7			STRN1			STRN2			
		X1	Y1	Z1	X2	Y2	Z2	X3	Y3	Z3	X4	Y4	Z4	X5	Y5	Z5	X6	Y6	Z6	X7	Y7	Z7	X8	Y8	Z8	X9	Y9	Z9	X10	Y10	Z10	X11	Y11	Z11	X12	Y12	Z12	X13	Y13	Z13	X14	Y14	Z14	X15	Y15	Z15	X16	Y16	Z16	X17	Y17	Z17	X18	Y18	Z18	X19	Y19	Z19	X20	Y20	Z20	X21	Y21	Z21	X22	Y22	Z22	X23	Y23	Z23	X24	Y24	Z24	X25	Y25	Z25	X26	Y26	Z26	X27	Y27	Z27	X28	Y28	Z28	X29	Y29	Z29	X30	Y30	Z30	X31	Y31	Z31	X32	Y32	Z32	X33	Y33	Z33	X34	Y34	Z34	X35	Y35	Z35	X36	Y36	Z36	X37	Y37	Z37	X38	Y38	Z38	X39	Y39	Z39	X40	Y40	Z40	X41	Y41	Z41	X42	Y42	Z42	X43	Y43	Z43	X44	Y44	Z44	X45	Y45	Z45	X46	Y46	Z46	X47	Y47	Z47	X48	Y48	Z48	X49	Y49	Z49	

152	1.510	-76.52899	168.99170	800.99823	-92.87803	-49.47597	798.87250	96.78145	100.25344	824.37836	88.48878	-0.16096	827.72833	-123.65903	197.23021	567.68298	-151.82112	178.80884	516.43268	-204.75745	164.95799	513.99536	-186.19539	165.26086	576.13861	-73.68680	-85.87344	537.79572	-87.38048	-66.24352	461.74747	-127.69926	-56.95638	503.94287	-117.24399	-69.45204	559.87866	-260.32150	135.61076	407.33276	-125.07621	-31.47872	333.31635	-122.27354	192.97110	234.00635	-194.05626	197.24463	223.45334	-147.49220	209.41409	206.28816	-133.25723	214.52936	169.86945	33.06797	-65.81884	196.64635	-2.96480	-53.96857	208.63873	-11.83909	-64.99805	246.62946	14.49011	-63.60599	277.13226	-112.77766	242.40634	72.64633	-131.56007	161.86612	48.13417	-49.98163	212.52478	25.37766	-68.43749	204.96178	63.06660	-86.00385	246.79636	38.02350	-83.17123	176.74548	21.41606	-185.86649	178.44815	40.88172	-227.53384	177.43594	18.92578	-149.04031	268.50748	27.46482	-200.21762	279.40073	27.60575	-217.72641	228.42339	52.31178	-259.81778	184.33562	14.53786	193.19560	-88.01722	110.35570	167.08778	-16.84653	64.33279	252.89063	-33.39123	108.45920	222.59970	-32.68378	125.18185	237.58989	-78.03273	101.23269	226.42397	-12.76705	81.53935	126.65535	-48.69234	50.80634	193.62975	-125.89404	47.64174	156.27177	-152.66666	26.12773	109.70359	-103.29097	56.80596	3.85144	224.70059	1228.95581	-12.41965	-119.02171	1272.82996	29.02424	62.72303	1309.76721	-111.50549	69.03001	1242.63477	-133.63806	58.94761	1190.43591 
153	1.520	-84.52396	171.24535	797.39783	-99.10415	-47.34894	796.09003	89.39231	103.68692	822.79785	81.76501	3.16192	825.72510	-129.21187	196.48700	562.89966	-156.51755	177.40582	511.40503	-209.70920	163.98430	508.24728	-192.44856	165.39604	570.69977	-80.04314	-85.46468	535.46539	-93.91267	-66.48224	459.19931	-134.22314	-56.90614	501.60571	-123.64725	-68.91361	557.51294	-266.96915	132.54091	404.47211	-131.19978	-32.98320	330.76706	-126.70190	192.29083	234.11186	-198.40776	196.88135	224.09270	-151.97343	209.35559	206.70171	-137.97025	214.87132	170.23689	29.52044	-65.83665	196.92577	-6.91292	-54.25645	208.14076	-16.24562	-65.20986	246.08057	9.60556	-63.48489	277.05402	-118.17226	243.83220	72.48705	-136.68069	163.05287	48.30326	-51.28699	214.50269	28.10886	-71.26167	206.86835	64.70546	-88.84091	248.21236	38.87116	-84.70276	178.40749	22.38548	-189.13268	179.73477	41.15898	-229.23041	178.44543	21.32598	-151.00693	269.84256	27.45796	-201.92139	281.48187	26.17413	-221.63930	231.55217	51.39954	-262.07156	185.42270	16.16722	191.31369	-86.56435	113.31863	164.98180	-15.74440	66.53342	250.17661	-30.91112	112.50932	219.57742	-30.54740	128.42558	235.69682	-75.85425	105.16913	223.95126	-10.97929	84.53934	125.29434	-48.19308	52.16954	193.24083	-124.30325	50.77558	156.76570	-151.79405	28.21808	108.80193	-102.81654	57.68908	-2.57994	229.25925	1225.37842	-16.85877	-115.10861	1270.07593	23.02639	67.36748	1307.05847	-117.65551	73.13666	1240.75061	-140.32193	62.92643	1188.77649 
154	1.530	-92.44712	173.46425	794.79474	-105.34832	-45.16177	793.63593	82.19473	106.97370	821.75873	75.19083	6.22097	824.20886	-134.32933	196.48022	560.22101	-161.14836	177.04700	508.70078	-214.43727	164.68344	504.78986	-198.27313	166.73560	567.36804	-85.90922	-85.25706	533.67041	-100.07006	-66.94637	457.37238	-140.48087	-57.31682	499.58282	-129.53224	-68.85825	555.62787	-273.70380	129.95024	404.46558	-137.24313	-34.91081	328.49515	-133.26649	193.73132	234.85735	-204.78751	194.41348	223.02190	-158.75787	209.19548	206.63705	-144.10129	215.07875	170.56470	25.97667	-65.71068	197.48186	-10.67725	-54.65287	208.16586	-20.54877	-65.76795	245.92432	4.67916	-63.69062	277.22458	-120.15029	242.69531	73.33237	-139.05852	162.52475	47.87421	-52.57567	214.10135	29.64132	-73.37601	205.68790	65.38486	-90.43133	247.27957	40.21577	-85.91956	178.16454	22.44121	-190.57106	178.53375	40.06200	-230.58165	177.69409	20.11689	-152.32129	268.86038	28.41924	-203.03531	280.67349	26.77011	-223.44485	230.13173	51.18171	-263.10794	184.55391	16.15371	189.51428	-84.31003	117.22227	163.29436	-14.13956	69.79167	247.37805	-27.58150	117.54044	216.52435	-27.95625	133.01717	234.23819	-73.18155	110.03316	221.66643	-8.24576	89.49043	124.25069	-47.39564	53.93402	193.54988	-122.15952	55.25898	158.51149	-150.83223	32.15787	108.42239	-102.40819	58.82852	-9.17581	233.82314	1222.20251	-21.52647	-111.26243	1267.65479	16.78960	72.09660	1304.75842	-124.14496	77.32246	1239.38513	-147.04953	66.89899	1187.44678 
155	1.540	-100.20308	175.40694	793.17773	-111.70989	-43.02220	791.22876	74.93816	110.07579	820.96735	68.81603	9.21017	822.92957	-140.23911	197.50879	559.50940	-166.93669	177.84070	508.07529	-220.35699	165.84439	503.94620	-204.13741	167.97649	566.28595	-91.37606	-85.25210	532.37860	-105.74559	-67.98019	455.91080	-146.32654	-58.27848	498.13162	-135.20905	-69.20470	554.29584	-279.86133	128.42751	404.84070	-143.17273	-37.22029	326.90701	-140.73189	195.07248	235.40482	-211.23857	190.35852	219.94051	-165.15543	208.58109	205.85460	-149.23735	213.38947	169.91464	22.58563	-65.80743	198.83823	-14.44930	-55.12762	208.74123	-24.78062	-66.59380	246.48213	-0.19067	-63.59184	278.08838	-120.14594	241.14302	74.71830	-139.24260	161.47813	47.02478	-52.70153	212.43481	30.33720	-73.73824	203.73462	65.71474	-90.83598	245.89168	41.16441	-86.40659	177.29222	21.88383	-190.74150	177.60478	39.12489	-231.18230	177.59526	19.15185	-152.33011	267.47952	29.15870	-202.90030	279.63959	27.65579	-222.91968	228.56142	51.63896	-263.39532	184.61261	14.30202	187.50916	-81.81701	121.83305	160.61012	-12.20468	73.40990	243.41701	-24.04491	123.35282	212.30348	-24.93189	137.62634	231.56166	-69.33307	115.13852	217.53607	-5.10900	94.70454	122.78384	-46.11219	56.84438	193.93703	-118.78783	60.95990	159.97926	-148.73726	36.82502	108.55259	-101.81372	61.23042	-15.69145	238.16548	1219.41748	-26.27754	-107.39489	1265.54260	10.45977	76.58282	1303.21069	-130.39870	81.32197	1238.37817	-153.95950	70.89571	1186.52649 
156	1.550	-107.84762	177.06947	792.20972	-117.25642	-41.73423	789.71674	67.85149	112.78868	820.33746	62.45528	12.10141	822.17572	-146.96573	199.15083	559.73505	-174.04526	179.40990	508.36765	-227.40587	166.62920	505.12946	-210.33508	168.68076	567.20685	-96.50571	-85.30904	531.55511	-111.47109	-68.71967	455.00885	-152.03848	-59.46937	497.41373	-140.51907	-69.96809	553.49597	-285.41214	127.78173	405.01663	-149.18532	-39.50044	326.25931	-145.71872	194.65111	236.09892	-215.23341	188.90089	216.57109	-168.71303	207.98787	205.24413	-150.67137	212.97762	170.35930	19.02731	-66.42097	201.17844	-18.54512	-56.25721	210.33014	-29.20846	-67.44757	248.06746	-5.17295	-63.39621	279.96097	-120.00000	240.69130	74.80536	-139.43073	161.39194	47.11123	-52.54999	212.31447	30.92124	-74.15572	203.49915	66.19676	-91.04743	245.70279	41.52662	-86.58846	177.23668	22.08570	-191.03241	177.90109	39.35072	-231.18346	177.93880	19.76194	-152.20192	267.66547	29.01372	-202.76170	280.18997	27.25435	-222.96727	229.32278	51.71754	-263.40494	184.89751	14.54992	183.63329	-79.48669	125.83860	156.64262	-10.05737	77.15953	238.78720	-20.82270	128.56926	207.46625	-22.20133	142.57623	227.50694	-66.30419	120.08360	213.19997	-2.15686	99.47533	119.81239	-45.12690	59.30659	191.73140	-116.37668	65.33506	159.06435	-146.98994	39.99905	106.17210	-100.80317	62.70824	-22.42705	242.44542	1217.12732	-31.35752	-103.82373	1263.92969	4.02866	80.94981	1301.80359	-136.81445	85.17027	1237.65247	-160.74997	74.60321	1185.75610 
157	1.560	-116.00104	177.97769	792.11841	-122.54440	-40.70627	788.65881	60.78484	115.43819	819.98383	56.34221	14.91222	821.89575	-153.90993	200.83427	560.25256	-181.62256	180.89571	509.30084	-234.61427	167.09842	506.77188	-216.61946	169.17134	568.58118	-101.58660	-85.32434	531.28790	-117.17459	-69.33318	454.67694	-157.76431	-60.73281	497.23697	-145.88287	-70.74043	553.27289	-289.84970	128.47107	403.90219	-155.93797	-41.56169	326.60938	-147.70996	195.06218	235.70963	-217.34767	190.71741	216.50919	-170.55325	208.85909	205.01988	-152.68369	213.75420	169.96909	14.29410	-66.30166	203.86588	-23.61508	-57.00949	212.48759	-34.47641	-68.08952	250.27438	-10.98559	-63.12755	282.39197	-120.95431	241.69872	74.33840	-139.37447	161.80841	47.50768	-52.18488	212.71175	31.30111	-74.39902	204.51860	66.73682	-91.06065	246.42453	41.48867	-86.45986	177.87517	22.74986	-190.99060	178.38260	39.65125	-231.12096	178.35103	20.20858	-152.01587	268.52222	28.64447	-202.62633	281.06290	26.67009	-222.82857	230.31302	51.57302	-263.53809	185.30237	15.89158	179.17299	-76.81794	129.99902	152.01364	-8.06132	80.88770	233.21999	-17.15520	134.32646	201.76926	-19.10527	147.64780	222.75348	-62.85088	125.40701	208.03555	1.18112	104.76392	116.33607	-43.61720	61.53595	188.98441	-114.24045	68.85075	157.91467	-145.01593	42.96904	103.09525	-99.42023	64.12772	-29.20484	246.52055	1215.45605	-36.66011	-100.22771	1263.16650	-2.36651	85.17243	1300.85828	-143.50702	89.04723	1237.23242	-167.47496	78.21019	1185.17175 
158	1.570	-123.56110	178.96274	791.77344	-127.71046	-39.95855	788.15710	53.86729	118.24702	820.08643	50.28763	17.63158	821.88147	-160.82442	202.30353	560.64227	-188.71458	182.14874	509.87048	-241.45738	167.43892	507.83667	-222.87041	169.54340	569.42755	-107.07522	-85.39525	531.47382	-123.33556	-70.02161	454.90912	-163.80434	-61.95070	497.70166	-151.41316	-71.48372	553.68854	-293.09015	130.07698	401.17883	-163.47406	-43.73287	327.46057	-149.16461	195.93715	234.70377	-218.88914	191.62679	215.65323	-172.04553	209.65359	204.02533	-154.21803	214.50784	169.02545	8.28223	-65.75819	206.78848	-29.84107	-57.02215	214.96031	-40.89822	-68.16087	252.56715	-17.78825	-62.86018	285.00470	-120.98444	242.18056	74.19984	-139.11183	162.13158	47.14684	-52.36406	213.21510	31.60258	-74.31187	204.96277	66.95056	-90.80041	246.86594	41.51252	-86.21771	178.14688	22.91478	-190.78928	178.55196	39.60980	-230.81488	178.65282	20.25336	-151.68991	269.03741	28.50067	-202.34631	281.60080	26.42541	-222.39169	230.86583	51.56939	-263.10596	185.53674	15.68109	174.35776	-73.38617	134.72337	146.89876	-5.17096	85.05569	226.90909	-12.80832	140.44308	195.30263	-15.51596	152.77335	217.88336	-58.52528	131.10129	201.93027	5.30096	110.48318	112.80548	-41.62498	64.37900	186.79272	-110.48324	74.26334	157.15140	-142.03416	47.42746	100.89351	-97.96052	66.32274	-36.45768	250.65347	1214.13306	-41.99544	-96.58124	1262.49695	-8.79297	89.35492	1300.34070	-150.11253	92.73743	1236.86768	-174.12766	81.53979	1184.99951 
